# xmcd
#
# Track frame offsets:
#	150
#	22129
#	40010
#	57429
#	77529
#	97529
#	117456
#	141080
#	157008
#	177140
#	198035
#	217270
#	237920
#	254068
#	274343
#	298277
#	319999
#	339222
#
# Disc length: 4772
#
# Revision: 2
# Processed by: cddbd v1.5.1PL0 Copyright (c) Steve Scherf et al.
# Submitted via: EasyCDDAExtractor 6.2.0.3
# Normalized: r1:DSETVAR1
#
DISCID=0e12a212
DTITLE=Various Artist - Valantine Collection Vol. 02
DYEAR=2003
DGENRE=Ballad
TTITLE0=Bette Midler - The Wind beneath my wings
TTITLE1=Vince Gill - I still believe in you
TTITLE2=Mariah Carey - My all
TTITLE3=Az Yet - Last night
TTITLE4=LeAnn Rimes - How do I live
TTITLE5=All-4-One - I will be right here
TTITLE6=Selena - Dreaming of you
TTITLE7=Aaron Neville and Linda Ronstadt - Don't know much
TTITLE8=Roxette - Vulnerable
TTITLE9=New Edition - I'm still in love with you
TTITLE10=Peter Cetera - Glory of love
TTITLE11=Celine Dion - Because you love me
TTITLE12=Richard Marx - Can't help falling in love
TTITLE13=Toni Braxton - Un-break my heart
TTITLE14=3T - Anything
TTITLE15=Foreigner - I don't wanna live without you
TTITLE16=Atlantic Starr - I'll remember you
TTITLE17=Peobo Bryson and Regina Belle - A whole new world
EXTD=
EXTT0=
EXTT1=
EXTT2=
EXTT3=
EXTT4=
EXTT5=
EXTT6=
EXTT7=
EXTT8=
EXTT9=
EXTT10=
EXTT11=
EXTT12=
EXTT13=
EXTT14=
EXTT15=
EXTT16=
EXTT17=
PLAYORDER=
